<svg width="16" height="17" viewBox="0 0 16 17" fill="none" xmlns="http://www.w3.org/2000/svg">
<g id="briefcase">
<path id="Icon" d="M10.6668 14.2109V3.54427C10.6668 3.19065 10.5264 2.85151 10.2763 2.60146C10.0263 2.35141 9.68712 2.21094 9.3335 2.21094H6.66683C6.31321 2.21094 5.97407 2.35141 5.72402 2.60146C5.47397 2.85151 5.3335 3.19065 5.3335 3.54427V14.2109M2.66683 4.8776H13.3335C14.0699 4.8776 14.6668 5.47456 14.6668 6.21094V12.8776C14.6668 13.614 14.0699 14.2109 13.3335 14.2109H2.66683C1.93045 14.2109 1.3335 13.614 1.3335 12.8776V6.21094C1.3335 5.47456 1.93045 4.8776 2.66683 4.8776Z" stroke="#667085" stroke-linecap="round" stroke-linejoin="round"/>
</g>
</svg>
