<svg width="16" height="17" viewBox="0 0 16 17" fill="none" xmlns="http://www.w3.org/2000/svg">
<g id="coin-stack">
<path id="Icon" d="M9.45034 3.02581C9.45109 2.20728 7.78205 1.54431 5.72554 1.54431C3.66904 1.54431 2.00149 2.20802 2 3.02581M2 3.02581C2 3.84434 3.66755 4.50731 5.72554 4.50731C7.78354 4.50731 9.45109 3.84434 9.45109 3.02581L9.45109 8.77396M2 3.02581V11.9147C2.00075 12.7333 3.6683 13.3962 5.72555 13.3962C6.72325 13.3962 7.62408 13.2385 8.29245 12.9844M2.00075 5.98879C2.00075 6.80732 3.6683 7.47029 5.72629 7.47029C7.78428 7.47029 9.45184 6.80732 9.45184 5.98879M8.33715 10.0074C7.66506 10.2704 6.74336 10.4333 5.72555 10.4333C3.6683 10.4333 2.00075 9.77035 2.00075 8.95183M13.6848 9.1874C14.994 10.4889 14.994 12.6 13.6848 13.9015C12.3756 15.203 10.2521 15.203 8.94293 13.9015C7.63377 12.6 7.63377 10.4889 8.94293 9.1874C10.2521 7.88591 12.3756 7.88591 13.6848 9.1874Z" stroke="#667085" stroke-linecap="round" stroke-linejoin="round"/>
</g>
</svg>
