<svg width="16" height="17" viewBox="0 0 16 17" fill="none" xmlns="http://www.w3.org/2000/svg">
<g id="settings" clip-path="url(#clip0_434_5255)">
<g id="Icon">
<path d="M7.99984 10.2109C9.10441 10.2109 9.99984 9.31547 9.99984 8.2109C9.99984 7.10633 9.10441 6.2109 7.99984 6.2109C6.89527 6.2109 5.99984 7.10633 5.99984 8.2109C5.99984 9.31547 6.89527 10.2109 7.99984 10.2109Z" stroke="#667085" stroke-linecap="round" stroke-linejoin="round"/>
<path d="M12.9332 10.2109C12.8444 10.412 12.818 10.635 12.8572 10.8513C12.8964 11.0676 12.9995 11.2671 13.1532 11.4242L13.1932 11.4642C13.3171 11.5881 13.4155 11.7351 13.4826 11.897C13.5497 12.0588 13.5842 12.2323 13.5842 12.4076C13.5842 12.5828 13.5497 12.7563 13.4826 12.9181C13.4155 13.08 13.3171 13.2271 13.1932 13.3509C13.0693 13.4749 12.9223 13.5732 12.7604 13.6403C12.5986 13.7074 12.4251 13.7419 12.2498 13.7419C12.0746 13.7419 11.9011 13.7074 11.7392 13.6403C11.5774 13.5732 11.4303 13.4749 11.3065 13.3509L11.2665 13.3109C11.1094 13.1572 10.9098 13.0541 10.6936 13.0149C10.4773 12.9757 10.2542 13.0022 10.0532 13.0909C9.85599 13.1754 9.68783 13.3157 9.56937 13.4946C9.45092 13.6734 9.38736 13.883 9.3865 14.0976V14.2109C9.3865 14.5645 9.24603 14.9037 8.99598 15.1537C8.74593 15.4038 8.40679 15.5442 8.05317 15.5442C7.69955 15.5442 7.36041 15.4038 7.11036 15.1537C6.86031 14.9037 6.71984 14.5645 6.71984 14.2109V14.1509C6.71468 13.9302 6.64325 13.7162 6.51484 13.5367C6.38644 13.3572 6.20699 13.2204 5.99984 13.1442C5.79876 13.0555 5.57571 13.029 5.35944 13.0682C5.14318 13.1074 4.94362 13.2105 4.7865 13.3642L4.7465 13.4042C4.62267 13.5282 4.47562 13.6265 4.31376 13.6936C4.15189 13.7607 3.97839 13.7953 3.80317 13.7953C3.62795 13.7953 3.45445 13.7607 3.29258 13.6936C3.13072 13.6265 2.98367 13.5282 2.85984 13.4042C2.73587 13.2804 2.63752 13.1333 2.57042 12.9715C2.50333 12.8096 2.46879 12.6361 2.46879 12.4609C2.46879 12.2857 2.50333 12.1122 2.57042 11.9503C2.63752 11.7884 2.73587 11.6414 2.85984 11.5176L2.89984 11.4776C3.05353 11.3204 3.15663 11.1209 3.19584 10.9046C3.23505 10.6884 3.20858 10.4653 3.11984 10.2642C3.03533 10.0671 2.89501 9.89888 2.71615 9.78043C2.53729 9.66198 2.32769 9.59842 2.11317 9.59756H1.99984C1.64622 9.59756 1.30708 9.45709 1.05703 9.20704C0.80698 8.95699 0.666504 8.61785 0.666504 8.26423C0.666504 7.91061 0.80698 7.57147 1.05703 7.32142C1.30708 7.07137 1.64622 6.9309 1.99984 6.9309H2.05984C2.2805 6.92573 2.49451 6.85431 2.67404 6.7259C2.85357 6.5975 2.99031 6.41805 3.0665 6.2109C3.15525 6.00982 3.18172 5.78677 3.14251 5.5705C3.10329 5.35424 3.00019 5.15468 2.8465 4.99756L2.8065 4.95756C2.68254 4.83373 2.58419 4.68668 2.51709 4.52482C2.44999 4.36295 2.41545 4.18945 2.41545 4.01423C2.41545 3.83901 2.44999 3.66551 2.51709 3.50364C2.58419 3.34178 2.68254 3.19473 2.8065 3.0709C2.93033 2.94693 3.07739 2.84858 3.23925 2.78148C3.40111 2.71438 3.57462 2.67985 3.74984 2.67985C3.92506 2.67985 4.09856 2.71438 4.26042 2.78148C4.42229 2.84858 4.56934 2.94693 4.69317 3.0709L4.73317 3.1109C4.89029 3.26459 5.08985 3.36769 5.30611 3.4069C5.52237 3.44611 5.74543 3.41964 5.9465 3.3309H5.99984C6.19702 3.24639 6.36518 3.10607 6.48363 2.92721C6.60208 2.74835 6.66565 2.53875 6.6665 2.32423V2.2109C6.6665 1.85727 6.80698 1.51814 7.05703 1.26809C7.30708 1.01804 7.64621 0.877563 7.99984 0.877563C8.35346 0.877563 8.6926 1.01804 8.94265 1.26809C9.19269 1.51814 9.33317 1.85727 9.33317 2.2109V2.2709C9.33403 2.48542 9.39759 2.69501 9.51604 2.87387C9.63449 3.05273 9.80266 3.19305 9.99984 3.27756C10.2009 3.36631 10.424 3.39278 10.6402 3.35357C10.8565 3.31435 11.0561 3.21125 11.2132 3.05756L11.2532 3.01756C11.377 2.89359 11.5241 2.79525 11.6859 2.72815C11.8478 2.66105 12.0213 2.62651 12.1965 2.62651C12.3717 2.62651 12.5452 2.66105 12.7071 2.72815C12.869 2.79525 13.016 2.89359 13.1398 3.01756C13.2638 3.14139 13.3622 3.28845 13.4292 3.45031C13.4963 3.61217 13.5309 3.78568 13.5309 3.9609C13.5309 4.13612 13.4963 4.30962 13.4292 4.47148C13.3622 4.63335 13.2638 4.7804 13.1398 4.90423L13.0998 4.94423C12.9461 5.10135 12.843 5.30091 12.8038 5.51717C12.7646 5.73343 12.7911 5.95649 12.8798 6.15756V6.2109C12.9643 6.40808 13.1047 6.57624 13.2835 6.69469C13.4624 6.81314 13.672 6.87671 13.8865 6.87756H13.9998C14.3535 6.87756 14.6926 7.01804 14.9426 7.26809C15.1927 7.51814 15.3332 7.85727 15.3332 8.2109C15.3332 8.56452 15.1927 8.90366 14.9426 9.15371C14.6926 9.40375 14.3535 9.54423 13.9998 9.54423H13.9398C13.7253 9.54509 13.5157 9.60865 13.3369 9.7271C13.158 9.84555 13.0177 10.0137 12.9332 10.2109Z" stroke="#667085" stroke-linecap="round" stroke-linejoin="round"/>
</g>
</g>
<defs>
<clipPath id="clip0_434_5255">
<rect width="16" height="16" fill="white" transform="translate(0 0.210938)"/>
</clipPath>
</defs>
</svg>
