<svg width="16" height="17" viewBox="0 0 16 17" fill="none" xmlns="http://www.w3.org/2000/svg">
<g id="users" clip-path="url(#clip0_434_5194)">
<g id="Icon">
<mask id="path-1-outside-1_434_5194" maskUnits="userSpaceOnUse" x="-0.333496" y="1.21094" width="17" height="14" fill="black">
<rect fill="white" x="-0.333496" y="1.21094" width="17" height="14"/>
<path d="M11.3332 14.2109V12.8776C11.3332 12.1704 11.0522 11.4921 10.5521 10.992C10.052 10.4919 9.37375 10.2109 8.6665 10.2109H3.33317C2.62593 10.2109 1.94765 10.4919 1.44755 10.992C0.947455 11.4921 0.666504 12.1704 0.666504 12.8776V14.2109"/>
<path d="M5.99984 7.54427C7.4726 7.54427 8.6665 6.35036 8.6665 4.8776C8.6665 3.40484 7.4726 2.21094 5.99984 2.21094C4.52708 2.21094 3.33317 3.40484 3.33317 4.8776C3.33317 6.35036 4.52708 7.54427 5.99984 7.54427Z"/>
<path d="M15.3332 14.2109V12.8776C15.3327 12.2868 15.1361 11.7128 14.7741 11.2458C14.4121 10.7788 13.9053 10.4453 13.3332 10.2976"/>
<path d="M10.6665 2.2976C11.2401 2.44447 11.7485 2.77807 12.1116 3.24581C12.4747 3.71355 12.6717 4.28882 12.6717 4.88094C12.6717 5.47305 12.4747 6.04832 12.1116 6.51606C11.7485 6.9838 11.2401 7.3174 10.6665 7.46427"/>
</mask>
<path d="M10.3332 14.2109C10.3332 14.7632 10.7809 15.2109 11.3332 15.2109C11.8855 15.2109 12.3332 14.7632 12.3332 14.2109H10.3332ZM8.6665 10.2109V9.21094V10.2109ZM3.33317 10.2109V9.21094V10.2109ZM0.666504 12.8776H-0.333496H0.666504ZM-0.333496 14.2109C-0.333496 14.7632 0.114219 15.2109 0.666504 15.2109C1.21879 15.2109 1.6665 14.7632 1.6665 14.2109H-0.333496ZM14.3332 14.2109C14.3332 14.7632 14.7809 15.2109 15.3332 15.2109C15.8855 15.2109 16.3332 14.7632 16.3332 14.2109H14.3332ZM15.3332 12.8776H16.3332L16.3332 12.8769L15.3332 12.8776ZM13.5832 9.32936C13.0484 9.19129 12.503 9.51286 12.3649 10.0476C12.2269 10.5824 12.5484 11.1278 13.0832 11.2659L13.5832 9.32936ZM10.9145 1.32885C10.3795 1.19187 9.83474 1.51454 9.69775 2.04957C9.56077 2.58459 9.88344 3.12937 10.4185 3.26635L10.9145 1.32885ZM12.6717 4.88094H13.6717H12.6717ZM10.4185 6.49552C9.88344 6.63251 9.56077 7.17728 9.69775 7.71231C9.83474 8.24734 10.3795 8.57001 10.9145 8.43302L10.4185 6.49552ZM12.3332 14.2109V12.8776H10.3332V14.2109H12.3332ZM12.3332 12.8776C12.3332 11.9051 11.9469 10.9725 11.2592 10.2849L9.84501 11.6991C10.1576 12.0117 10.3332 12.4356 10.3332 12.8776H12.3332ZM11.2592 10.2849C10.5716 9.59725 9.63896 9.21094 8.6665 9.21094V11.2109C9.10853 11.2109 9.53245 11.3865 9.84501 11.6991L11.2592 10.2849ZM8.6665 9.21094H3.33317V11.2109H8.6665V9.21094ZM3.33317 9.21094C2.36071 9.21094 1.42808 9.59725 0.740446 10.2849L2.15466 11.6991C2.46722 11.3865 2.89114 11.2109 3.33317 11.2109V9.21094ZM0.740446 10.2849C0.0528125 10.9725 -0.333496 11.9051 -0.333496 12.8776H1.6665C1.6665 12.4356 1.8421 12.0117 2.15466 11.6991L0.740446 10.2849ZM-0.333496 12.8776V14.2109H1.6665V12.8776H-0.333496ZM7.6665 4.8776C7.6665 5.79808 6.92031 6.54427 5.99984 6.54427V8.54427C8.02488 8.54427 9.6665 6.90265 9.6665 4.8776H7.6665ZM5.99984 6.54427C5.07936 6.54427 4.33317 5.79808 4.33317 4.8776H2.33317C2.33317 6.90265 3.97479 8.54427 5.99984 8.54427V6.54427ZM4.33317 4.8776C4.33317 3.95713 5.07936 3.21094 5.99984 3.21094V1.21094C3.97479 1.21094 2.33317 2.85256 2.33317 4.8776H4.33317ZM5.99984 3.21094C6.92031 3.21094 7.6665 3.95713 7.6665 4.8776H9.6665C9.6665 2.85256 8.02488 1.21094 5.99984 1.21094V3.21094ZM16.3332 14.2109V12.8776H14.3332V14.2109H16.3332ZM16.3332 12.8769C16.3326 12.0644 16.0622 11.2752 15.5644 10.6331L13.9837 11.8585C14.21 12.1503 14.3329 12.5091 14.3332 12.8784L16.3332 12.8769ZM15.5644 10.6331C15.0667 9.99106 14.3698 9.53246 13.5832 9.32936L13.0832 11.2659C13.4407 11.3582 13.7575 11.5666 13.9837 11.8585L15.5644 10.6331ZM10.4185 3.26635C10.777 3.35815 11.0947 3.56665 11.3216 3.85898L12.9015 2.63264C12.4023 1.9895 11.7033 1.5308 10.9145 1.32885L10.4185 3.26635ZM11.3216 3.85898C11.5486 4.15132 11.6717 4.51087 11.6717 4.88094H13.6717C13.6717 4.06678 13.4008 3.27578 12.9015 2.63264L11.3216 3.85898ZM11.6717 4.88094C11.6717 5.25101 11.5486 5.61055 11.3216 5.90289L12.9015 7.12924C13.4008 6.48609 13.6717 5.69509 13.6717 4.88094H11.6717ZM11.3216 5.90289C11.0947 6.19523 10.777 6.40373 10.4185 6.49552L10.9145 8.43302C11.7033 8.23108 12.4023 7.77238 12.9015 7.12924L11.3216 5.90289Z" fill="#98A2B3" mask="url(#path-1-outside-1_434_5194)"/>
</g>
</g>
<defs>
<clipPath id="clip0_434_5194">
<rect width="16" height="16" fill="white" transform="translate(0 0.210938)"/>
</clipPath>
</defs>
</svg>
